<svg width="25" height="25" viewBox="0 0 25 25" fill="none" xmlns="http://www.w3.org/2000/svg">
<g clip-path="url(#clip0)">
<path d="M18.4724 15.8958L21.5118 3.99513H24.8368V2.12451H20.0589L19.3424 4.92988L0 4.91605L2.05638 15.8957H18.4724V15.8958ZM18.8648 6.80017L17.0195 14.0251H3.60916L2.25376 6.78829L18.8648 6.80017Z" fill="#6C6C6C"/>
<path d="M15.9118 22.7128C17.5613 22.7128 18.9033 21.3708 18.9033 19.7214C18.9033 18.0719 17.5613 16.73 15.9118 16.73H4.64135C2.99188 16.73 1.6499 18.0719 1.6499 19.7214C1.6499 21.3708 2.99185 22.7128 4.64135 22.7128C6.29085 22.7128 7.63277 21.3708 7.63277 19.7214C7.63277 19.3252 7.55516 18.9469 7.4147 18.6006H13.1385C12.998 18.9469 12.9204 19.3252 12.9204 19.7214C12.9204 21.3708 14.2624 22.7128 15.9118 22.7128ZM5.76215 19.7214C5.76215 20.3394 5.25937 20.8422 4.64135 20.8422C4.02333 20.8422 3.52052 20.3394 3.52052 19.7214C3.52052 19.1034 4.0233 18.6006 4.64135 18.6006C5.25937 18.6006 5.76215 19.1034 5.76215 19.7214ZM17.0327 19.7214C17.0327 20.3394 16.5299 20.8422 15.9119 20.8422C15.2938 20.8422 14.7911 20.3394 14.7911 19.7214C14.7911 19.1034 15.2938 18.6006 15.9119 18.6006C16.5299 18.6006 17.0327 19.1034 17.0327 19.7214Z" fill="#6C6C6C"/>
</g>
<defs>
<clipPath id="clip0">
<rect width="24.8368" height="24.8368" fill="white"/>
</clipPath>
</defs>
</svg>
