<svg width="13" height="13" viewBox="0 0 13 13" fill="none" xmlns="http://www.w3.org/2000/svg">
<g clip-path="url(#clip0)">
<path d="M0.0308672 4.90992C-0.00214644 5.60477 0.101995 6.28557 0.340434 6.93339C0.570638 7.55887 0.915644 8.1271 1.36588 8.62224C1.81611 9.11739 2.34904 9.51473 2.94988 9.80321C3.57216 10.102 4.24002 10.2703 4.93485 10.3033C5.01733 10.3072 5.10091 10.3092 5.18324 10.3092C6.11719 10.3092 7.01853 10.0586 7.80641 9.59054L11.2159 13L12.9759 11.24L9.57904 7.84307C10.0269 7.11183 10.2866 6.27559 10.3282 5.39923C10.3612 4.70437 10.2571 4.02358 10.0187 3.37575C9.78844 2.75028 9.44345 2.18206 8.99321 1.68691C8.54296 1.19177 8.01004 0.794432 7.40921 0.505949C6.78693 0.207168 6.11906 0.0389224 5.42421 0.00590873C5.34173 0.00197887 5.25816 0 5.17581 0C3.85015 0 2.58983 0.504235 1.62702 1.41982C0.661025 2.33845 0.0941631 3.57792 0.0308672 4.90992ZM2.28006 2.10652C3.06592 1.35919 4.09432 0.947627 5.17581 0.947627C5.24322 0.947627 5.31164 0.949257 5.37923 0.952462C6.50167 1.00579 7.53613 1.49304 8.29208 2.32443C9.04805 3.15582 9.43502 4.23184 9.38168 5.35426C9.35143 5.99095 9.18001 6.6016 8.88496 7.14902C8.67622 7.53631 8.4057 7.89201 8.07903 8.20266C7.78635 8.48096 7.45999 8.71265 7.10982 8.89392C6.51975 9.19936 5.86199 9.36156 5.18325 9.36156C5.11585 9.36156 5.04742 9.35993 4.97985 9.35671C3.85741 9.30339 2.82295 8.81613 2.067 7.98476C1.31104 7.15335 0.924075 6.07734 0.977421 4.9549C1.02909 3.86778 1.4917 2.85622 2.28006 2.10652ZM11.6358 11.24L11.2159 11.6598L8.58211 9.02605C8.63278 8.98144 8.68289 8.93606 8.73207 8.88932C8.827 8.79902 8.91796 8.70552 9.0051 8.60924L11.6358 11.24Z" fill="#C9C9C9"/>
</g>
<defs>
<clipPath id="clip0">
<rect width="13" height="13" fill="white"/>
</clipPath>
</defs>
</svg>
