<svg width="24" height="24" viewBox="0 0 24 24" fill="none" xmlns="http://www.w3.org/2000/svg">
<g clip-path="url(#clip0)">
<path d="M11.5312 8.64854C13.9156 8.64854 15.8554 6.7087 15.8554 4.32427C15.8554 1.93984 13.9155 0 11.5312 0C9.14678 0 7.20689 1.93984 7.20689 4.32427C7.20689 6.7087 9.14673 8.64854 11.5312 8.64854ZM11.5312 1.80178C12.922 1.80178 14.0537 2.93339 14.0537 4.32427C14.0537 5.71515 12.922 6.84676 11.5312 6.84676C10.1403 6.84676 9.00867 5.71515 9.00867 4.32427C9.00867 2.93339 10.1402 1.80178 11.5312 1.80178ZM19.6207 21.9807L17.4374 11.3502C17.3514 10.9312 16.9827 10.6305 16.555 10.6305H13.7144C13.4755 10.6305 13.2463 10.7254 13.0774 10.8944L11.5312 12.4406L9.98488 10.8944C9.81596 10.7254 9.58677 10.6305 9.34786 10.6305H6.50731C6.07961 10.6305 5.71088 10.9312 5.62484 11.3502L3.44154 21.9807C3.32704 22.5383 3.7532 23.0628 4.32405 23.0628H18.7383C19.3075 23.0628 19.7356 22.5398 19.6207 21.9807ZM5.42877 21.261L7.24203 12.4323H8.97471L10.8941 14.3517C11.246 14.7035 11.8164 14.7035 12.1682 14.3517L14.0876 12.4323H15.8203L17.6336 21.261H5.42877Z" fill="#6C6C6C"/>
</g>
<defs>
<clipPath id="clip0">
<rect width="23.0628" height="23.0628" fill="white"/>
</clipPath>
</defs>
</svg>
