<svg width="22" height="20" viewBox="0 0 22 20" fill="none" xmlns="http://www.w3.org/2000/svg">
<path d="M21.2854 6.21567C21.2796 6.1414 21.273 6.08447 21.2671 6.04537C20.9691 2.67094 18.4935 0 15.2806 0C13.4192 0 11.7182 0.880818 10.6044 2.30876C9.51661 0.871211 7.8804 0 6.0289 0C2.82693 0 0.35698 2.65285 0.0389623 6.06455C0.032849 6.1043 0.0266941 6.15271 0.0210798 6.20964C-0.0332747 6.76084 0.0119306 7.4912 0.221988 8.38108C0.668302 10.2718 1.71198 11.9938 3.184 13.3282L10.0387 19.355C10.3726 19.6486 10.8722 19.6497 11.2074 19.3576L18.1124 13.3407C19.7399 11.6469 20.7072 10.1232 21.0907 8.36748C21.2831 7.48575 21.3279 6.76017 21.2854 6.21567ZM19.3572 7.98904C19.0555 9.3699 18.253 10.6341 16.8889 12.0581L10.6274 17.5099L4.36566 12.0046C3.16458 10.9157 2.311 9.50726 1.9489 7.97344C1.7845 7.27698 1.75148 6.74308 1.79074 6.3453L1.80326 6.25605C2.03149 3.68688 3.80431 1.7744 6.0289 1.7744C7.68503 1.7744 9.09405 2.78443 9.77882 4.40663C10.084 5.1295 11.1084 5.1295 11.4135 4.40663C12.0846 2.81695 13.5935 1.7744 15.2806 1.7744C17.5052 1.7744 19.278 3.687 19.5062 6.25693C19.5123 6.30858 19.514 6.32289 19.5164 6.35395C19.5457 6.72928 19.5117 7.28114 19.3572 7.98904Z" fill="#6C6C6C"/>
</svg>
